<svg width="204" height="97" viewBox="0 0 204 97" fill="none" xmlns="http://www.w3.org/2000/svg">
<path d="M0.664 22.344C0.664 15.432 2.456 10.2267 6.04 6.728C9.624 3.22933 13.8907 1.48 18.84 1.48C23.8747 1.48 30.7013 2.33333 39.32 4.03999C47.9387 5.74666 54.424 6.64266 58.776 6.728C66.0293 5.36266 72.9413 3.69866 79.512 1.73599C80.1947 3.95466 80.536 6.728 80.536 10.056C80.536 16.968 78.5307 22.1733 74.52 25.672C70.5947 29.1707 65.56 30.92 59.416 30.92C57.88 30.92 55.832 30.8347 53.272 30.664C48.5787 55.3253 46.232 69.1067 46.232 72.008C46.232 80.2853 47.512 86.472 50.072 90.568C44.952 94.408 39.6187 96.328 34.072 96.328C28.5253 96.328 24.5573 94.7493 22.168 91.592C19.7787 88.3493 18.584 83.5707 18.584 77.256C18.584 70.856 21.0587 53.8747 26.008 26.312C16.3653 27.592 8.25867 29.0427 1.688 30.664C1.00533 28.5307 0.664 25.7573 0.664 22.344ZM181.493 96.328C175.946 96.328 171.978 94.7493 169.589 91.592C167.2 88.3493 166.005 83.6133 166.005 77.384C166.005 71.1547 168.01 56.8187 172.021 34.376H169.973C164.768 41.2027 160.458 49.352 157.045 58.824C153.632 68.296 151.541 76.8293 150.773 84.424C146.592 88.3493 141.77 90.312 136.309 90.312C134.09 90.312 132.128 89.544 130.421 88.008C128.8 86.3867 127.178 83.6133 125.557 79.688C122.4 71.752 120.138 56.648 118.773 34.376H116.725C112.544 52.7227 110.453 65.6507 110.453 73.16C110.453 80.6693 111.733 86.472 114.293 90.568C109.173 94.408 103.84 96.328 98.293 96.328C92.7463 96.328 88.7783 94.7493 86.389 91.592C83.9997 88.3493 82.805 83.5707 82.805 77.256C82.805 70.856 85.493 52.808 90.869 23.112L84.085 9.41599C93.7277 3.18666 102.517 0.0719986 110.453 0.0719986C113.952 0.0719986 116.896 0.455999 119.285 1.224C121.76 1.90666 124.106 3.27199 126.325 5.31999C128.629 7.368 130.506 10.2267 131.957 13.896C135.285 22.1733 137.674 34.248 139.125 50.12H140.661C145.098 37.064 151.242 25.8427 159.093 16.456C163.36 11.4213 168.437 7.45333 174.325 4.55199C180.298 1.65066 186.741 0.199997 193.653 0.199997C200.224 0.199997 203.509 4.168 203.509 12.104C203.509 14.7493 201.845 24.6053 198.517 41.672C195.274 58.6533 193.653 68.7653 193.653 72.008C193.653 80.2853 194.933 86.472 197.493 90.568C192.373 94.408 187.04 96.328 181.493 96.328Z" fill="#018031"/>
</svg>
