<svg width="131" height="18" viewBox="0 0 131 18" fill="none" xmlns="http://www.w3.org/2000/svg">
<path d="M0.26 5.96C0.26 4.88 0.54 4.06667 1.1 3.52C1.66 2.97333 2.32667 2.7 3.1 2.7C3.88667 2.7 4.95333 2.83333 6.3 3.1C7.64667 3.36667 8.66 3.50667 9.34 3.52C10.4733 3.30667 11.5533 3.04667 12.58 2.74C12.6867 3.08667 12.74 3.52 12.74 4.04C12.74 5.12 12.4267 5.93333 11.8 6.48C11.1867 7.02667 10.4 7.3 9.44 7.3C9.2 7.3 8.88 7.28667 8.48 7.26C7.74667 11.1133 7.38 13.2667 7.38 13.72C7.38 15.0133 7.58 15.98 7.98 16.62C7.18 17.22 6.34667 17.52 5.48 17.52C4.61333 17.52 3.99333 17.2733 3.62 16.78C3.24667 16.2733 3.06 15.5267 3.06 14.54C3.06 13.54 3.44667 10.8867 4.22 6.58C2.71333 6.78 1.44667 7.00667 0.42 7.26C0.313333 6.92667 0.26 6.49333 0.26 5.96ZM22.6545 6.52C23.4012 6.52 24.0412 6.82 24.5745 7.42C25.1212 8.02 25.3945 8.89333 25.3945 10.04C25.3945 11.1733 25.1945 12.2267 24.7945 13.2C24.3945 14.16 23.8679 14.9467 23.2145 15.56C22.5612 16.1733 21.8212 16.6533 20.9945 17C20.1679 17.3333 19.3212 17.5 18.4545 17.5C16.7079 17.5 15.3279 17.02 14.3145 16.06C13.3012 15.1 12.7945 13.8267 12.7945 12.24C12.7945 10.0933 13.4812 8.35333 14.8545 7.02C16.2412 5.67333 18.0012 5 20.1345 5C20.6145 5 21.0945 5.05333 21.5745 5.16C21.7212 5.6 21.8012 6.1 21.8145 6.66C22.0945 6.56667 22.3745 6.52 22.6545 6.52ZM20.1945 9.3C20.1945 8.92667 20.2812 8.50667 20.4545 8.04C20.6412 7.57333 20.9345 7.2 21.3345 6.92C19.5745 7.29333 18.3612 8.00667 17.6945 9.06C17.1212 9.96667 16.8345 10.9 16.8345 11.86C16.8345 12.82 17.0279 13.5933 17.4145 14.18C17.8145 14.7533 18.3212 15.04 18.9345 15.04C20.2945 15.04 21.2545 14.1533 21.8145 12.38C20.7345 11.7133 20.1945 10.6867 20.1945 9.3ZM36.9514 6.52C37.6981 6.52 38.3381 6.82 38.8714 7.42C39.4181 8.02 39.6914 8.89333 39.6914 10.04C39.6914 11.1733 39.4914 12.2267 39.0914 13.2C38.6914 14.16 38.1647 14.9467 37.5114 15.56C36.8581 16.1733 36.1181 16.6533 35.2914 17C34.4647 17.3333 33.6181 17.5 32.7514 17.5C31.0047 17.5 29.6247 17.02 28.6114 16.06C27.5981 15.1 27.0914 13.8267 27.0914 12.24C27.0914 10.0933 27.7781 8.35333 29.1514 7.02C30.5381 5.67333 32.2981 5 34.4314 5C34.9114 5 35.3914 5.05333 35.8714 5.16C36.0181 5.6 36.0981 6.1 36.1114 6.66C36.3914 6.56667 36.6714 6.52 36.9514 6.52ZM34.4914 9.3C34.4914 8.92667 34.5781 8.50667 34.7514 8.04C34.9381 7.57333 35.2314 7.2 35.6314 6.92C33.8714 7.29333 32.6581 8.00667 31.9914 9.06C31.4181 9.96667 31.1314 10.9 31.1314 11.86C31.1314 12.82 31.3247 13.5933 31.7114 14.18C32.1114 14.7533 32.6181 15.04 33.2314 15.04C34.5914 15.04 35.5514 14.1533 36.1114 12.38C35.0314 11.7133 34.4914 10.6867 34.4914 9.3ZM43.4683 4.56L42.3483 2.96C44.0149 1.98667 45.3283 1.5 46.2883 1.5C46.8349 1.5 47.2216 1.61333 47.4483 1.84C47.6749 2.05333 47.7883 2.46667 47.7883 3.08C47.7883 3.68 47.4883 5.38667 46.8883 8.2C46.3016 11.0133 46.0083 12.9867 46.0083 14.12C46.0083 15.2533 46.2149 16.0533 46.6283 16.52C45.6949 17.1733 44.8483 17.5 44.0883 17.5C43.3283 17.5 42.7683 17.2533 42.4083 16.76C42.0616 16.2533 41.8883 15.56 41.8883 14.68C41.8883 13.8 42.1349 12 42.6283 9.28C43.1216 6.56 43.4016 4.98667 43.4683 4.56ZM64.8036 17.52C63.9369 17.52 63.3169 17.2733 62.9436 16.78C62.5703 16.2733 62.3836 15.5333 62.3836 14.56C62.3836 13.5867 62.6969 11.3467 63.3236 7.84H63.0036C62.1903 8.90667 61.5169 10.18 60.9836 11.66C60.4503 13.14 60.1236 14.4733 60.0036 15.66C59.3503 16.2733 58.5969 16.58 57.7436 16.58C57.3969 16.58 57.0903 16.46 56.8236 16.22C56.5703 15.9667 56.3169 15.5333 56.0636 14.92C55.5703 13.68 55.2169 11.32 55.0036 7.84H54.6836C54.0303 10.7067 53.7036 12.7267 53.7036 13.9C53.7036 15.0733 53.9036 15.98 54.3036 16.62C53.5036 17.22 52.6703 17.52 51.8036 17.52C50.9369 17.52 50.3169 17.2733 49.9436 16.78C49.5703 16.2733 49.3836 15.5267 49.3836 14.54C49.3836 13.54 49.8036 10.72 50.6436 6.08L49.5836 3.94C51.0903 2.96667 52.4636 2.48 53.7036 2.48C54.2503 2.48 54.7103 2.54 55.0836 2.66C55.4703 2.76667 55.8369 2.98 56.1836 3.3C56.5436 3.62 56.8369 4.06667 57.0636 4.64C57.5836 5.93333 57.9569 7.82 58.1836 10.3H58.4236C59.1169 8.26 60.0769 6.50667 61.3036 5.04C61.9703 4.25333 62.7636 3.63333 63.6836 3.18C64.6169 2.72667 65.6236 2.5 66.7036 2.5C67.7303 2.5 68.2436 3.12 68.2436 4.36C68.2436 4.77333 67.9836 6.31333 67.4636 8.98C66.9569 11.6333 66.7036 13.2133 66.7036 13.72C66.7036 15.0133 66.9036 15.98 67.3036 16.62C66.5036 17.22 65.6703 17.52 64.8036 17.52ZM76.4663 1.84C76.4663 2.34667 76.1996 2.78667 75.6663 3.16C75.1329 3.52 74.5263 3.7 73.8463 3.7C73.1663 3.7 72.6263 3.56667 72.2263 3.3C71.8396 3.03333 71.6463 2.67333 71.6463 2.22C71.6463 1.60667 71.9329 1.12667 72.5063 0.779999C73.0796 0.433333 73.6863 0.26 74.3263 0.26C74.9663 0.26 75.4796 0.393333 75.8663 0.659999C76.2663 0.926666 76.4663 1.32 76.4663 1.84ZM72.5663 17.5C71.7396 17.5 71.1396 17.2933 70.7663 16.88C70.3929 16.4667 70.2063 15.84 70.2063 15C70.2063 14.1467 70.6329 11.8733 71.4863 8.18L70.3663 6.5C72.0329 5.5 73.3463 5 74.3063 5C74.8529 5 75.2396 5.12 75.4663 5.36C75.6929 5.58667 75.8063 5.96 75.8063 6.48C75.8063 6.68 75.5596 7.85333 75.0663 10C74.5729 12.1467 74.3263 13.68 74.3263 14.6C74.3263 15.52 74.5329 16.16 74.9463 16.52C74.1996 17.1733 73.4063 17.5 72.5663 17.5ZM80.0602 17.5C79.2735 17.5 78.6935 17.2933 78.3202 16.88C77.9468 16.4667 77.7602 15.92 77.7602 15.24C77.7602 14.56 77.8935 13.4533 78.1602 11.92C78.4402 10.3867 78.7268 8.98667 79.0202 7.72L77.9802 6.12C79.3002 5.37333 80.5202 5 81.6402 5C82.7602 5 83.3202 5.50667 83.3202 6.52C83.3202 7.18667 83.1668 7.86667 82.8602 8.56L83.0602 8.66C84.4868 6.22 86.3002 5 88.5002 5C90.1135 5 90.9202 5.80667 90.9202 7.42C90.9202 8.11333 90.7202 9.28667 90.3202 10.94C89.9335 12.5933 89.7402 13.84 89.7402 14.68C89.7402 15.52 89.8802 16.1333 90.1602 16.52C89.4535 17.1733 88.7068 17.5 87.9202 17.5C86.3868 17.5 85.6202 16.6733 85.6202 15.02C85.6202 14.4067 85.8202 13.3667 86.2202 11.9C86.6202 10.4333 86.8202 9.48 86.8202 9.04C86.8202 8.44 86.5935 8.14 86.1402 8.14C85.7668 8.14 85.3402 8.30667 84.8602 8.64C84.3802 8.96 83.9135 9.4 83.4602 9.96C83.0202 10.5067 82.6468 11.2067 82.3402 12.06C82.0335 12.9 81.8802 13.76 81.8802 14.64C81.8802 15.5067 82.0202 16.1333 82.3002 16.52C81.5935 17.1733 80.8468 17.5 80.0602 17.5ZM100.456 15.54L100.256 15.44C99.2164 16.8133 97.9764 17.5 96.5364 17.5C95.4697 17.5 94.5631 17.08 93.8164 16.24C93.0831 15.3867 92.7164 14.24 92.7164 12.8C92.7164 11.0133 93.3431 9.38667 94.5964 7.92C95.2097 7.2 96.0297 6.62 97.0564 6.18C98.0831 5.72667 99.2297 5.5 100.496 5.5C100.736 5.5 101.163 5.52667 101.776 5.58C101.803 5.3 101.863 4.96 101.956 4.56L100.836 2.96C102.503 1.98667 103.816 1.5 104.776 1.5C105.323 1.5 105.71 1.61333 105.936 1.84C106.163 2.05333 106.276 2.46667 106.276 3.08C106.276 3.68 105.976 5.38667 105.376 8.2C104.79 11.0133 104.496 13.0133 104.496 14.2C104.496 15.3733 104.703 16.1467 105.116 16.52C104.37 17.1733 103.59 17.5 102.776 17.5C101.976 17.5 101.39 17.3 101.016 16.9C100.643 16.4867 100.456 16.0333 100.456 15.54ZM96.4764 12.04C96.4764 12.8 96.6697 13.4 97.0564 13.84C97.4564 14.28 97.9497 14.5 98.5364 14.5C99.2964 14.5 99.9897 14.14 100.616 13.42C100.83 11.0467 101.13 8.99333 101.516 7.26C99.9831 7.26 98.7564 7.75333 97.8364 8.74C96.9297 9.72667 96.4764 10.8267 96.4764 12.04ZM113.397 17.5C111.571 17.5 110.157 17.0267 109.157 16.08C108.171 15.1333 107.677 13.8533 107.677 12.24C107.677 10.0933 108.411 8.35333 109.877 7.02C111.357 5.67333 113.211 5 115.437 5C116.677 5 117.617 5.28 118.257 5.84C118.897 6.38667 119.217 7.11333 119.217 8.02C119.217 9.26 118.611 10.2933 117.397 11.12C116.197 11.9333 114.337 12.3467 111.817 12.36C111.857 13.2133 112.051 13.8867 112.397 14.38C112.744 14.86 113.177 15.1 113.697 15.1C114.217 15.1 114.664 14.9267 115.037 14.58C115.424 14.2333 115.617 13.6667 115.617 12.88C117.564 12.88 118.537 13.34 118.537 14.26C118.537 15.0467 118.057 15.7867 117.097 16.48C116.137 17.16 114.904 17.5 113.397 17.5ZM115.097 7.34C114.417 7.34 113.791 7.68 113.217 8.36C112.657 9.04 112.251 9.84 111.997 10.76C113.331 10.6533 114.331 10.3533 114.997 9.86C115.677 9.35333 116.017 8.82 116.017 8.26C116.017 7.99333 115.931 7.77333 115.757 7.6C115.597 7.42667 115.377 7.34 115.097 7.34ZM121.022 15.02C121.022 14.4867 121.155 13.4533 121.422 11.92C121.702 10.3867 121.989 8.98667 122.282 7.72L121.242 6.12C122.909 5.37333 124.075 5 124.742 5C125.422 5 125.762 5.42667 125.762 6.28C125.762 6.74667 125.542 7.72 125.102 9.2L125.302 9.3C126.262 6.43333 127.455 5 128.882 5C129.535 5 130.035 5.2 130.382 5.6C130.729 6 130.902 6.44667 130.902 6.94C130.902 7.67333 130.629 8.3 130.082 8.82C129.535 9.34 128.715 9.6 127.622 9.6C125.969 9.6 125.142 11.3 125.142 14.7C125.142 15.5267 125.282 16.1333 125.562 16.52C124.735 17.1733 123.975 17.5 123.282 17.5C121.775 17.5 121.022 16.6733 121.022 15.02Z" fill="white"/>
</svg>
